<svg xmlns:dc="http://purl.org/dc/elements/1.1/" xmlns:cc="http://creativecommons.org/ns#" xmlns:rdf="http://www.w3.org/1999/02/22-rdf-syntax-ns#" xmlns:svg="http://www.w3.org/2000/svg" xmlns="http://www.w3.org/2000/svg" xmlns:xlink="http://www.w3.org/1999/xlink" id="svg156974" viewBox="0 0 1024 768" height="768px" width="1024px" version="1.1">
  <metadata id="metadata156980">
    <rdf:rdf>
      <cc:work rdf:about="">
        <dc:format>image/svg+xml</dc:format>
        <dc:type rdf:resource="http://purl.org/dc/dcmitype/StillImage"></dc:type>
      </cc:work>
    </rdf:rdf>
  </metadata>
  <defs id="defs156978"></defs>
  <linearGradient spreadMethod="pad" y2="30%" x2="-10%" y1="120%" x1="30%" id="3d_gradient2-logo-7d77fe5f-05b5-46c9-b543-248d14a4d105">
    <stop id="stop156955" stop-opacity="1" stop-color="#ffffff" offset="0%"></stop>
    <stop id="stop156957" stop-opacity="1" stop-color="#000000" offset="100%"></stop>
  </linearGradient>
  <linearGradient gradientTransform="rotate(-30)" spreadMethod="pad" y2="30%" x2="-10%" y1="120%" x1="30%" id="3d_gradient3-logo-7d77fe5f-05b5-46c9-b543-248d14a4d105">
    <stop id="stop156960" stop-opacity="1" stop-color="#ffffff" offset="0%"></stop>
    <stop id="stop156962" stop-opacity="1" stop-color="#cccccc" offset="50%"></stop>
    <stop id="stop156964" stop-opacity="1" stop-color="#000000" offset="100%"></stop>
  </linearGradient>
  <g id="logo-group">
    <image xlink:href="" id="container" x="272" y="144" width="480" height="480" style="display: none;" transform="translate(0 0)"></image>
    <g id="logo-center" transform="translate(0 0)">
      <image xlink:href="" id="icon_container" style="display: none;" x="0" y="0"></image>
      <g id="slogan" style="font-style:normal;font-weight:700;font-size:32px;line-height:1;font-family:Numans;font-variant-ligatures:none;text-align:center;text-anchor:middle" transform="translate(0 0)"></g>
      <g id="title" style="font-style:normal;font-weight:normal;font-size:72px;line-height:1;font-family:'Daniel Black';font-variant-ligatures:none;text-align:center;text-anchor:middle" transform="translate(0 0)">
        <path id="path156983" style="font-style:normal;font-weight:normal;font-size:72px;line-height:1;font-family:'Daniel Black';font-variant-ligatures:none;text-align:center;text-anchor:middle" d="m 492.98047,-21.832031 q 0,0.597656 -2.42578,5.484375 -1.05469,0.667968 -1.44141,1.933593 -4.21875,3.867188 -10.26562,6.8554693 -1.05469,0.5273437 -10.26563,4.5351562 -1.26562,0.1757812 -3.9375,0.984375 -2.67187,0.8085938 -2.74219,0.8085938 -0.0703,0 -0.73828,-0.070312 -0.63281,-0.070312 -0.77344,-0.070312 -1.05468,-1.0898438 -2.07421,-1.0898438 -0.2461,0 -0.45704,0 -0.17578,-0.4570313 -0.8789,-1.3007813 -0.49219,0.9140625 -1.19531,2.1796876 -0.5625,0.2460937 -1.23047,0.2460937 -0.17578,0 -0.35157,-0.035156 l -0.73828,0.7382812 h -0.5625 q -0.21093,0 -2.0039,-0.9492187 -0.94922,0.2109375 -1.08985,0.2109375 -1.82812,-1.5468751 -1.82812,-2.5664063 -0.84375,-1.0898437 -1.08985,-3.1289062 -0.59765,-0.9843751 -0.77343,-2.0742188 -0.0703,-0.5625 -0.31641,-2.074219 -0.24609,-1.511719 -0.38672,-1.617187 0,0 0,0.175781 v -3.761719 q -0.3164,-1.792968 -0.3164,-2.460937 0,-0.175781 0.0351,-0.28125 -0.10547,-0.457031 -0.10547,-0.984375 0,-0.667969 0.17578,-1.300781 -0.38671,-0.667969 -2.32031,-1.476563 -1.30078,-1.546875 -1.30078,-3.480469 0,-1.300781 1.05469,-3.023437 0.98437,-1.6875 2.17969,-2.390625 l 0.24609,-17.964844 q 0.10547,-1.792969 0.49219,-7.488281 0.21093,-3.199219 1.72265,-5.589844 0.21094,-0.210937 0.84375,-0.808594 1.3711,-0.632812 1.75782,-0.632812 0.14062,0 0.73828,0.175781 0.63281,0.175781 0.66797,0.175781 0.45703,0.949219 1.75781,2.742188 0.49219,1.335937 1.08984,3.480469 -0.0351,0.175781 -0.0351,0.386718 0,0.597657 0.10546,1.511719 0.10547,1.019531 0.2461,2.636719 l 0.70312,17.121094 q 0.0703,0.210937 0.38672,0.351562 0.2461,-0.105469 2.53125,-0.28125 l 7.34766,-0.632812 7.13672,0.140625 q 0.38672,0 2.88281,0.210937 2.95312,0.5625 5.02734,1.089844 0.45703,0.210937 1.44141,0.773437 2.95312,0.667969 6.04687,3.691407 2.77735,2.742187 3.6211,5.238281 1.23047,3.761719 1.37109,3.761719 0.0352,0 0.0352,-0.105469 z m -11.74219,0 v -0.5625 q -0.77344,-0.984375 -2.39062,-2.003906 -3.79688,-1.511719 -8.82422,-1.757813 -0.77344,-0.246094 -0.94922,-0.246094 -0.0352,0 -0.0352,0 l -7.13672,0.316407 q -1.75781,0.105468 -6.64453,1.828125 v 1.160156 q 0,0.07031 0.17578,0.527344 0.17578,0.457031 0.17578,0.527343 v 3.832032 l 1.3711,9.4218745 q 0.14062,-0.140625 0.38672,-0.140625 0.0703,-0.28125 0.38672,-0.703125 2.84765,-1.6523435 9.21093,-4.0429685 6.15235,-2.320313 7.73438,-3.515625 1.30078,-0.246094 6.53906,-4.640625 z" stroke-width="0" stroke-linejoin="miter" stroke-miterlimit="2" fill="#9bafe3" stroke="#9bafe3" transform="translate(0 321.42126874) translate(364.82468689999985 8.711448399999995) scale(1.67) translate(-441.58198 64.30078)"></path>
        <path id="path156985" style="font-style:normal;font-weight:normal;font-size:72px;line-height:1;font-family:'Daniel Black';font-variant-ligatures:none;text-align:center;text-anchor:middle" d="m 510.27734,-38.882812 q -0.17578,0.316406 -0.5625,0.738281 0.35157,0.878906 0.35157,1.652344 -0.35157,0.5625 -1.89844,1.300781 -0.14063,-0.175781 -0.70313,-0.175781 -0.59765,0 -0.73828,0.175781 -1.51172,-0.808594 -3.44531,-1.089844 -1.30078,-3.023437 -1.30078,-3.691406 0,-0.03516 0,-0.07031 l 0.35156,-3.9375 q 0.35156,-0.140625 1.16016,-0.949218 h 2.21484 q 1.08984,0.632812 2.39063,2.53125 0.91406,0.28125 1.33593,1.441406 0.59766,1.6875 0.84375,2.074219 z M 508.23828,-12.375 q 0,-0.105469 0,-0.105469 -0.0352,0 -0.10547,0.527344 -0.10547,0.808594 -0.17578,1.792969 -0.0703,1.300781 -0.0703,3.1640623 V -3.375 l -1.08985,2.6015625 -0.77343,-0.17578125 q -0.31641,0.24609375 -0.73828,0.52734375 -0.28125,-0.10546875 -0.70313,-0.3515625 -0.35156,0.10546875 -0.73828,0.3515625 -0.28125,-0.2109375 -2.95313,-0.8789062 Q 499.625,-3.375 498.67578,-8.4375 498.5,-9.3164063 498.5,-10.6875 q 0,-0.457031 0.0352,-0.984375 l 0.21093,-6.292969 0.87891,-4.183593 q 0.98437,-0.878907 1.26562,-1.828125 l 1.89844,-0.421875 q 0.42188,0 1.16016,0.492187 1.05469,1.230469 3.16406,3.515625 1.16016,2.039063 1.16016,3.621094 z" stroke-width="0" stroke-linejoin="miter" stroke-miterlimit="2" fill="#8ea9dd" stroke="#8ea9dd" transform="translate(0 321.42126874) translate(471.56778029999987 41.06117872) scale(1.67) translate(-498.5 44.929684)"></path>
        <path id="path156987" style="font-style:normal;font-weight:normal;font-size:72px;line-height:1;font-family:'Daniel Black';font-variant-ligatures:none;text-align:center;text-anchor:middle" d="m 528.83984,-54.28125 -6.32812,55.7226562 q -1.16016,0 -2.53125,0.5625001 -0.38672,0 -0.77344,-0.3515626 L 518.75,1.7226562 q -0.45703,0.070312 -0.84375,0.070312 -0.14063,-0.140625 -1.79297,-1.47656245 -0.28125,0 -0.84375,0.6328125 -0.24609,-0.703125 -0.70312,-1.65234375 -0.70313,-4.78125 -0.70313,-5.8359375 l 2.95313,-25.4179685 q 1.26562,-10.441406 2.88281,-26.472656 0.28125,-1.160157 1.08984,-4.078125 0.66797,-2.460938 1.79297,-3.585938 l 1.51172,0.175781 q 1.01953,0.949219 1.89844,1.265625 0.21093,0.457032 1.72265,2.355469 1.125,3.410156 1.125,4.183594 z" stroke-width="0" stroke-linejoin="miter" stroke-miterlimit="2" fill="#82a3d7" stroke="#82a3d7" transform="translate(0 321.42126874) translate(508.91445789999995 5.717188500000006) scale(1.67) translate(-513.86328 66.09375)"></path>
        <path id="path156989" style="font-style:normal;font-weight:normal;font-size:72px;line-height:1;font-family:'Daniel Black';font-variant-ligatures:none;text-align:center;text-anchor:middle" d="m 546.55859,-38.882812 q -0.17578,0.316406 -0.5625,0.738281 0.35157,0.878906 0.35157,1.652344 -0.35157,0.5625 -1.89844,1.300781 -0.14063,-0.175781 -0.70313,-0.175781 -0.59765,0 -0.73828,0.175781 Q 541.49609,-36 539.5625,-36.28125 q -1.30078,-3.023437 -1.30078,-3.691406 0,-0.03516 0,-0.07031 l 0.35156,-3.9375 q 0.35156,-0.140625 1.16016,-0.949218 h 2.21484 q 1.08984,0.632812 2.39063,2.53125 0.91406,0.28125 1.33593,1.441406 0.59766,1.6875 0.84375,2.074219 z M 544.51953,-12.375 q 0,-0.105469 0,-0.105469 -0.0352,0 -0.10547,0.527344 -0.10547,0.808594 -0.17578,1.792969 -0.0703,1.300781 -0.0703,3.1640623 V -3.375 l -1.08985,2.6015625 -0.77343,-0.17578125 q -0.31641,0.24609375 -0.73828,0.52734375 -0.28125,-0.10546875 -0.70313,-0.3515625 -0.35156,0.10546875 -0.73828,0.3515625 -0.28125,-0.2109375 -2.95313,-0.8789062 Q 535.90625,-3.375 534.95703,-8.4375 q -0.17578,-0.8789063 -0.17578,-2.25 0,-0.457031 0.0352,-0.984375 l 0.21093,-6.292969 0.87891,-4.183593 q 0.98437,-0.878907 1.26562,-1.828125 l 1.89844,-0.421875 q 0.42188,0 1.16016,0.492187 1.05469,1.230469 3.16406,3.515625 1.16016,2.039063 1.16016,3.621094 z" stroke-width="0" stroke-linejoin="miter" stroke-miterlimit="2" fill="#759cd2" stroke="#759cd2" transform="translate(0 321.42126874) translate(555.5374678 41.06117872) scale(1.67) translate(-534.78125 44.929684)"></path>
        <path id="path156991" style="font-style:normal;font-weight:normal;font-size:72px;line-height:1;font-family:'Daniel Black';font-variant-ligatures:none;text-align:center;text-anchor:middle" d="m 565.12109,-54.28125 -6.32812,55.7226562 q -1.16016,0 -2.53125,0.5625001 -0.38672,0 -0.77344,-0.3515626 l -0.45703,0.070312 q -0.45703,0.070312 -0.84375,0.070312 -0.14063,-0.140625 -1.79297,-1.47656245 -0.28125,0 -0.84375,0.6328125 -0.24609,-0.703125 -0.70312,-1.65234375 -0.70313,-4.78125 -0.70313,-5.8359375 l 2.95313,-25.4179685 q 1.26562,-10.441406 2.88281,-26.472656 0.28125,-1.160157 1.08984,-4.078125 0.66797,-2.460938 1.79297,-3.585938 l 1.51172,0.175781 q 1.01953,0.949219 1.89844,1.265625 0.21093,0.457032 1.72265,2.355469 1.125,3.410156 1.125,4.183594 z" stroke-width="0" stroke-linejoin="miter" stroke-miterlimit="2" fill="#6996cc" stroke="#6996cc" transform="translate(0 321.42126874) translate(592.8841454000001 5.717186830000003) scale(1.67) translate(-550.14453 66.093751)"></path>
        <path id="path156993" style="font-style:normal;font-weight:normal;font-size:72px;line-height:1;font-family:'Daniel Black';font-variant-ligatures:none;text-align:center;text-anchor:middle" d="m 582.83984,-38.882812 q -0.17578,0.316406 -0.5625,0.738281 0.35157,0.878906 0.35157,1.652344 -0.35157,0.5625 -1.89844,1.300781 -0.14063,-0.175781 -0.70313,-0.175781 -0.59765,0 -0.73828,0.175781 -1.51172,-0.808594 -3.44531,-1.089844 -1.30078,-3.023437 -1.30078,-3.691406 0,-0.03516 0,-0.07031 l 0.35156,-3.9375 q 0.35156,-0.140625 1.16016,-0.949218 h 2.21484 q 1.08984,0.632812 2.39063,2.53125 0.91406,0.28125 1.33593,1.441406 0.59766,1.6875 0.84375,2.074219 z M 580.80078,-12.375 q 0,-0.105469 0,-0.105469 -0.0352,0 -0.10547,0.527344 -0.10547,0.808594 -0.17578,1.792969 -0.0703,1.300781 -0.0703,3.1640623 V -3.375 l -1.08985,2.6015625 -0.77343,-0.17578125 q -0.31641,0.24609375 -0.73828,0.52734375 -0.28125,-0.10546875 -0.70313,-0.3515625 -0.35156,0.10546875 -0.73828,0.3515625 Q 576.125,-0.6328125 573.45312,-1.3007812 572.1875,-3.375 571.23828,-8.4375 q -0.17578,-0.8789063 -0.17578,-2.25 0,-0.457031 0.0352,-0.984375 l 0.21093,-6.292969 0.87891,-4.183593 q 0.98437,-0.878907 1.26562,-1.828125 l 1.89844,-0.421875 q 0.42188,0 1.16016,0.492187 1.05469,1.230469 3.16406,3.515625 1.16016,2.039063 1.16016,3.621094 z" stroke-width="0" stroke-linejoin="miter" stroke-miterlimit="2" fill="#5c90c6" stroke="#5c90c6" transform="translate(0 321.42126874) translate(639.5071553000001 41.06117872) scale(1.67) translate(-571.0625 44.929684)"></path>
      </g>
      <image xlink:href="https://app.brandmark.io/nounpreview/236858.png" id="icon" style="display: none;" x="0" y="0"></image>
    </g>
  </g>
</svg>
